<svg xmlns="http://www.w3.org/2000/svg" xmlns:xlink="http://www.w3.org/1999/xlink" width="321" zoomAndPan="magnify" viewBox="0 0 240.75 141.750002" height="189" preserveAspectRatio="xMidYMid meet" version="1.0"><defs><clipPath id="32fc451e72"><path d="M 64 121 L 86 121 L 86 141.386719 L 64 141.386719 Z M 64 121 " clip-rule="nonzero"/></clipPath><clipPath id="40bc8d9ea1"><path d="M 163 68 L 190.953125 68 L 190.953125 74 L 163 74 Z M 163 68 " clip-rule="nonzero"/></clipPath><clipPath id="d524dc7575"><path d="M 162 98 L 190.953125 98 L 190.953125 104 L 162 104 Z M 162 98 " clip-rule="nonzero"/></clipPath><clipPath id="aec57205bb"><path d="M 49.566406 68 L 78 68 L 78 74 L 49.566406 74 Z M 49.566406 68 " clip-rule="nonzero"/></clipPath><clipPath id="9104dc7084"><path d="M 154 121 L 176 121 L 176 141.386719 L 154 141.386719 Z M 154 121 " clip-rule="nonzero"/></clipPath><clipPath id="cefab1b040"><path d="M 49.566406 98 L 78 98 L 78 104 L 49.566406 104 Z M 49.566406 98 " clip-rule="nonzero"/></clipPath></defs><g clip-path="url(#32fc451e72)"><path fill="#ffffff" d="M 68.976562 140.492188 L 85.589844 125.863281 C 84.59375 124.496094 83.660156 123.078125 82.832031 121.601562 L 65.667969 136.699219 C 64.625 137.605469 64.535156 139.210938 65.441406 140.253906 C 66.335938 141.277344 67.960938 141.394531 68.976562 140.492188 " fill-opacity="1" fill-rule="nonzero"/></g><path fill="#ffffff" d="M 144.804688 33.191406 C 142.265625 24.085938 132.570312 17.640625 124.105469 17.640625 L 116.390625 17.640625 C 107.921875 17.640625 98.226562 24.085938 95.6875 33.191406 C 97.117188 32.914062 98.582031 32.757812 100.089844 32.757812 L 140.40625 32.757812 C 141.910156 32.757812 143.378906 32.914062 144.804688 33.191406 " fill-opacity="1" fill-rule="nonzero"/><path fill="#ffffff" d="M 82.449219 55.4375 L 82.449219 57.957031 L 117.726562 57.957031 L 117.726562 37.796875 L 100.089844 37.796875 C 90.363281 37.796875 82.449219 45.710938 82.449219 55.4375 " fill-opacity="1" fill-rule="nonzero"/><path fill="#ffffff" d="M 62.929688 28.566406 C 62.015625 29.597656 62.09375 31.191406 63.128906 32.109375 C 63.175781 32.148438 79.261719 46.480469 79.261719 46.480469 C 79.949219 44.894531 80.824219 43.40625 81.839844 42.019531 L 66.464844 28.339844 C 65.429688 27.433594 63.835938 27.53125 62.929688 28.566406 " fill-opacity="1" fill-rule="nonzero"/><path fill="#ffffff" d="M 177.574219 28.574219 C 176.667969 27.53125 175.054688 27.433594 174.019531 28.347656 C 174.011719 28.367188 158.65625 42.03125 158.65625 42.03125 C 159.667969 43.40625 160.546875 44.894531 161.234375 46.480469 L 177.335938 32.136719 C 178.390625 31.222656 178.488281 29.628906 177.574219 28.574219 " fill-opacity="1" fill-rule="nonzero"/><g clip-path="url(#40bc8d9ea1)"><path fill="#ffffff" d="M 188.28125 73.074219 C 189.671875 73.074219 190.800781 71.941406 190.800781 70.554688 C 190.800781 69.167969 189.671875 68.035156 188.28125 68.035156 L 163.085938 68.035156 L 163.085938 73.074219 L 188.28125 73.074219 " fill-opacity="1" fill-rule="nonzero"/></g><g clip-path="url(#d524dc7575)"><path fill="#ffffff" d="M 162.957031 103.3125 L 188.28125 103.3125 C 189.671875 103.3125 190.800781 102.179688 190.800781 100.792969 C 190.800781 99.40625 189.671875 98.273438 188.28125 98.273438 L 163.085938 98.273438 L 163.085938 100.792969 C 163.085938 101.648438 163.003906 102.476562 162.957031 103.3125 " fill-opacity="1" fill-rule="nonzero"/></g><path fill="#ffffff" d="M 109.636719 13.574219 L 102.921875 1.457031 C 102.578125 0.769531 102.058594 0.324219 101.40625 0.117188 C 100.777344 -0.0898438 100.097656 -0.03125 99.507812 0.277344 C 98.269531 0.914062 97.777344 2.441406 98.40625 3.679688 L 104.929688 15.394531 C 106.4375 14.636719 108.011719 14.035156 109.636719 13.574219 " fill-opacity="1" fill-rule="nonzero"/><path fill="#ffffff" d="M 158.042969 55.4375 C 158.042969 45.710938 150.132812 37.796875 140.40625 37.796875 L 122.765625 37.796875 L 122.765625 57.957031 L 158.042969 57.957031 L 158.042969 55.4375 " fill-opacity="1" fill-rule="nonzero"/><path fill="#ffffff" d="M 140.996094 0.285156 C 140.394531 -0.03125 139.71875 -0.0898438 139.085938 0.117188 C 138.4375 0.324219 137.914062 0.769531 137.609375 1.378906 L 130.859375 13.574219 C 132.480469 14.035156 134.058594 14.636719 135.5625 15.394531 L 142.128906 3.59375 C 142.71875 2.441406 142.226562 0.914062 140.996094 0.285156 " fill-opacity="1" fill-rule="nonzero"/><path fill="#ffffff" d="M 149.746094 100.054688 L 137.148438 112.652344 C 136.65625 113.144531 136.015625 113.390625 135.367188 113.390625 C 134.714844 113.390625 134.078125 113.144531 133.585938 112.652344 C 132.601562 111.671875 132.601562 110.074219 133.585938 109.089844 L 144.402344 98.273438 L 133.585938 87.457031 C 132.601562 86.472656 132.601562 84.878906 133.585938 83.894531 C 134.570312 82.910156 136.164062 82.910156 137.148438 83.894531 L 149.746094 96.492188 C 150.730469 97.476562 150.730469 99.070312 149.746094 100.054688 Z M 127.707031 81.324219 L 117.628906 116.601562 C 117.3125 117.714844 116.300781 118.433594 115.207031 118.433594 C 114.980469 118.433594 114.746094 118.402344 114.519531 118.332031 C 113.179688 117.949219 112.402344 116.5625 112.785156 115.222656 L 122.867188 79.945312 C 123.25 78.605469 124.648438 77.839844 125.976562 78.214844 C 127.316406 78.597656 128.09375 79.984375 127.707031 81.324219 Z M 106.910156 109.089844 C 107.894531 110.074219 107.894531 111.671875 106.910156 112.652344 C 106.417969 113.144531 105.777344 113.390625 105.128906 113.390625 C 104.480469 113.390625 103.839844 113.144531 103.347656 112.652344 L 90.746094 100.054688 C 89.761719 99.070312 89.761719 97.476562 90.746094 96.492188 L 103.347656 83.894531 C 104.332031 82.910156 105.925781 82.910156 106.910156 83.894531 C 107.894531 84.878906 107.894531 86.472656 106.910156 87.457031 L 96.09375 98.273438 Z M 158.042969 62.996094 L 82.449219 62.996094 L 82.449219 100.792969 C 82.449219 121.632812 99.398438 138.589844 120.246094 138.589844 C 141.09375 138.589844 158.042969 121.632812 158.042969 100.792969 L 158.042969 62.996094 " fill-opacity="1" fill-rule="nonzero"/><g clip-path="url(#aec57205bb)"><path fill="#ffffff" d="M 52.210938 68.035156 C 50.824219 68.035156 49.691406 69.167969 49.691406 70.554688 C 49.691406 71.941406 50.824219 73.074219 52.210938 73.074219 L 77.410156 73.074219 L 77.410156 68.035156 L 52.210938 68.035156 " fill-opacity="1" fill-rule="nonzero"/></g><g clip-path="url(#9104dc7084)"><path fill="#ffffff" d="M 154.90625 125.863281 L 171.511719 140.480469 C 172.523438 141.394531 174.136719 141.296875 175.042969 140.265625 C 175.929688 139.25 175.871094 137.625 174.835938 136.71875 C 174.769531 136.652344 157.660156 121.589844 157.660156 121.589844 C 156.835938 123.078125 155.898438 124.496094 154.90625 125.863281 " fill-opacity="1" fill-rule="nonzero"/></g><g clip-path="url(#cefab1b040)"><path fill="#ffffff" d="M 52.210938 98.273438 C 50.824219 98.273438 49.691406 99.40625 49.691406 100.792969 C 49.691406 102.179688 50.824219 103.3125 52.210938 103.3125 L 77.539062 103.3125 C 77.488281 102.476562 77.410156 101.648438 77.410156 100.792969 L 77.410156 98.273438 L 52.210938 98.273438 " fill-opacity="1" fill-rule="nonzero"/></g></svg>